<?xml version="1.0" standalone="no"?>
<!DOCTYPE svg PUBLIC "-//W3C//DTD SVG 20010904//EN"
 "http://www.w3.org/TR/2001/REC-SVG-20010904/DTD/svg10.dtd">
<svg version="1.0" xmlns="http://www.w3.org/2000/svg"
 width="468pt" height="94pt" viewBox="0 0 468 94"
 preserveAspectRatio="xMidYMid meet">
<metadata>
Created by POTRACE VERSION, written by Peter Selinger 2001-2007
</metadata>
<g transform="translate(0,94) scale(0.012401,-0.012401)"
fill="#000000" stroke="none">
<path d="M21658 7501 c-48 -10 -112 -26 -142 -36 -53 -18 -54 -18 -104 3 -37
16 -70 22 -124 21 -40 0 -109 -4 -153 -8 -60 -6 -98 -16 -150 -42 -64 -31 -81
-34 -190 -40 -66 -3 -133 -12 -149 -18 -17 -7 -64 -16 -105 -22 -60 -7 -97 -6
-177 8 -96 16 -112 16 -275 0 -96 -10 -190 -17 -210 -17 -19 0 -69 -9 -110
-20 -45 -12 -107 -20 -157 -20 -72 0 -90 -4 -144 -31 -48 -24 -70 -30 -102
-26 -23 3 -60 11 -82 18 -38 11 -46 10 -105 -14 -60 -26 -73 -27 -194 -25 -98
2 -160 -3 -250 -19 -93 -17 -135 -20 -185 -14 -36 4 -102 4 -148 -1 -45 -5
-115 -20 -154 -32 -57 -19 -78 -22 -102 -13 -17 5 -50 12 -73 14 -40 5 -45 2
-84 -41 -26 -28 -56 -50 -78 -56 -20 -5 -75 -10 -122 -10 -77 0 -89 -2 -107
-22 -11 -13 -33 -37 -49 -55 -22 -25 -47 -37 -117 -57 -49 -14 -99 -32 -112
-41 -12 -8 -32 -40 -44 -72 -12 -32 -44 -100 -71 -152 -30 -58 -49 -108 -49
-128 0 -19 9 -51 20 -73 11 -21 29 -64 40 -94 13 -33 35 -67 55 -85 19 -16 50
-33 69 -36 22 -5 61 1 112 15 44 12 87 26 96 31 9 5 29 33 45 61 22 41 39 59
77 79 32 16 54 36 62 55 7 16 18 44 25 62 7 19 22 38 36 43 14 5 61 8 106 7
45 -1 116 4 157 11 73 13 76 15 132 74 l57 61 43 -12 c24 -7 58 -17 76 -21 22
-6 55 -4 100 5 48 11 96 13 167 9 67 -4 139 -1 220 9 68 9 179 15 255 14 74
-1 191 3 260 8 92 8 135 16 165 31 22 12 73 31 114 43 62 19 86 22 150 16 42
-4 189 -9 326 -10 138 -1 264 2 280 6 17 5 74 15 127 23 54 8 168 18 255 21
112 4 206 1 325 -10 137 -14 188 -14 285 -5 65 6 165 8 223 5 81 -5 117 -3
157 9 28 8 94 20 145 25 51 5 120 18 153 30 33 12 92 24 130 27 68 5 71 4 110
-27 22 -18 59 -41 81 -51 31 -14 62 -19 120 -17 49 1 106 -5 150 -16 57 -14
78 -16 111 -7 23 6 74 35 114 64 58 41 78 63 100 107 15 30 36 74 45 98 10 24
30 52 46 63 16 11 35 33 43 49 8 16 15 38 15 49 0 11 -10 27 -22 35 -13 8 -71
24 -130 35 -58 11 -116 26 -127 33 -12 7 -35 36 -51 65 -25 44 -36 54 -72 64
-33 8 -77 8 -184 -1 -105 -9 -154 -9 -193 -1 -29 6 -85 11 -125 11 -40 0 -108
-9 -151 -20 -43 -11 -106 -20 -139 -20 -34 0 -103 9 -155 20 -52 11 -101 19
-110 19 -9 -1 -55 -9 -103 -18z"/>
<path d="M32717 6203 c-66 -44 -92 -68 -106 -98 -11 -22 -27 -75 -36 -118 -12
-54 -16 -107 -13 -167 2 -52 9 -95 17 -104 7 -8 40 -23 72 -32 39 -11 74 -30
104 -56 24 -21 75 -53 112 -70 68 -31 69 -31 266 -35 166 -3 207 -1 250 13 29
9 62 25 74 36 12 11 24 31 27 44 4 13 0 41 -7 62 -7 21 -38 68 -67 105 -30 37
-77 85 -105 106 -42 32 -55 50 -78 107 -15 38 -36 83 -47 101 -10 18 -37 41
-59 52 -22 12 -74 30 -116 42 -42 11 -100 31 -128 45 -29 13 -57 24 -63 24 -6
0 -50 -26 -97 -57z"/>
<path d="M1869 5175 c-3 -2 -79 -11 -168 -20 -90 -9 -167 -18 -171 -20 -4 -2
-54 -9 -111 -14 -57 -6 -136 -18 -176 -27 -68 -17 -74 -17 -115 0 -24 10 -60
24 -81 32 -29 11 -48 12 -85 3 -26 -6 -89 -17 -140 -24 -51 -7 -101 -19 -111
-27 -10 -7 -47 -34 -82 -60 -35 -26 -74 -55 -87 -65 -12 -10 -34 -47 -49 -83
-14 -36 -28 -86 -31 -112 -3 -29 3 -76 13 -117 l18 -68 -26 -84 c-15 -46 -27
-105 -27 -130 0 -40 -6 -54 -50 -107 -27 -35 -52 -78 -56 -97 -3 -18 -1 -65 6
-103 10 -59 8 -87 -9 -198 -11 -71 -28 -173 -37 -226 -15 -82 -15 -108 -5
-169 l12 -72 -36 -75 c-25 -53 -38 -97 -44 -156 -6 -44 -21 -144 -34 -221 -14
-77 -28 -171 -32 -210 -4 -38 -15 -103 -26 -143 l-18 -72 23 -63 c13 -34 27
-87 31 -117 4 -31 2 -82 -4 -115 -7 -36 -23 -76 -40 -100 -16 -22 -34 -58 -39
-80 -6 -22 -15 -87 -21 -145 -6 -61 -21 -134 -35 -175 -24 -65 -25 -83 -25
-258 0 -184 0 -189 23 -212 18 -18 40 -25 92 -30 38 -4 84 -14 102 -21 25 -10
39 -11 53 -3 15 7 38 6 87 -5 53 -12 76 -13 110 -4 33 8 49 20 67 47 12 20 43
51 69 70 25 19 64 63 85 96 33 53 49 67 112 101 49 27 80 51 93 73 17 30 18
38 6 101 l-13 69 42 69 c35 58 41 76 41 123 0 44 -6 65 -30 102 -18 29 -39 49
-55 53 -15 4 -51 4 -82 1 -30 -3 -66 -13 -79 -22 -13 -9 -38 -34 -54 -57 -17
-23 -40 -73 -51 -112 -12 -39 -26 -77 -31 -83 -6 -7 -23 -13 -38 -13 -16 0
-42 11 -58 25 -16 14 -37 41 -46 60 -14 30 -15 44 -6 95 6 33 17 77 25 99 7
21 25 57 39 80 15 23 46 94 70 159 24 64 49 142 55 173 7 31 13 82 14 115 1
32 -7 111 -17 174 -14 87 -17 141 -12 220 5 94 4 109 -14 140 -11 19 -34 64
-51 100 -18 36 -34 86 -36 111 -4 31 0 56 11 77 9 17 32 43 52 58 19 15 42 40
50 56 8 16 42 56 75 88 42 42 59 66 59 85 0 16 -11 37 -29 53 -16 15 -34 37
-40 49 -6 12 -11 49 -11 82 0 33 7 78 16 100 8 21 33 53 55 70 21 18 41 42 45
55 3 15 -4 42 -21 75 -18 33 -25 59 -21 75 3 14 37 47 81 80 42 32 87 74 101
94 14 20 40 62 57 92 18 30 40 56 51 58 12 3 36 -13 67 -44 47 -46 48 -47 72
-31 14 9 67 33 119 54 77 31 105 38 163 38 47 0 81 -6 104 -17 19 -10 43 -18
53 -18 10 0 42 12 71 27 46 24 64 27 157 28 70 2 120 8 149 19 24 9 70 20 102
25 38 6 69 6 87 0 15 -5 32 -17 38 -27 6 -9 19 -44 28 -76 10 -32 33 -81 52
-108 19 -28 34 -56 34 -63 0 -7 -10 -38 -21 -69 -19 -50 -21 -62 -10 -113 6
-33 29 -86 52 -125 23 -37 45 -84 50 -105 4 -21 5 -63 2 -94 -5 -48 -1 -66 21
-114 14 -32 26 -70 26 -86 0 -19 -8 -34 -23 -44 -13 -8 -43 -17 -68 -20 -24
-4 -130 -2 -235 3 -104 4 -229 5 -277 1 -48 -5 -100 -14 -114 -21 -15 -7 -42
-33 -61 -58 -19 -25 -53 -57 -76 -71 -22 -15 -49 -35 -58 -45 -9 -11 -21 -39
-27 -64 -6 -25 -11 -68 -11 -96 0 -37 6 -59 21 -78 11 -14 30 -31 42 -38 12
-6 49 -17 82 -24 33 -7 112 -13 176 -14 99 0 126 -4 183 -25 37 -14 80 -25 97
-25 16 0 44 7 62 16 18 9 58 41 89 70 31 30 68 58 83 64 14 5 46 10 71 10 26
0 47 -5 49 -12 3 -7 -6 -67 -21 -133 -14 -66 -32 -166 -40 -223 -8 -57 -20
-115 -28 -130 -8 -15 -26 -38 -40 -51 -14 -13 -30 -38 -36 -55 -5 -17 -14 -74
-20 -126 -5 -52 -10 -130 -10 -173 0 -43 4 -87 10 -97 5 -10 25 -24 44 -30 23
-7 47 -28 70 -60 32 -44 40 -49 93 -60 32 -6 90 -18 129 -26 44 -9 91 -28 125
-49 30 -19 59 -35 64 -35 6 0 42 44 80 97 l70 98 -1 75 c-1 55 -8 93 -27 144
-15 37 -27 88 -27 111 0 23 11 72 24 107 14 36 35 84 48 109 19 36 23 59 22
129 0 71 -5 94 -27 140 -15 30 -27 69 -27 87 0 21 11 45 35 75 19 24 44 61 55
84 11 22 22 65 26 96 5 43 1 73 -16 132 -22 72 -22 81 -10 149 8 40 13 124 12
187 -1 63 -7 129 -13 147 -6 18 -28 46 -50 64 -22 17 -45 41 -52 52 -8 15 -12
82 -13 209 0 157 -3 190 -18 212 -9 14 -26 26 -37 26 -11 0 -33 7 -49 15 -16
9 -36 29 -45 45 -9 17 -15 55 -15 90 0 34 -5 71 -11 83 -7 12 -29 42 -50 67
-20 25 -55 70 -77 99 -22 29 -64 74 -93 100 -30 26 -63 53 -74 58 -11 6 -73
21 -137 32 -64 11 -171 34 -239 51 -68 16 -140 30 -160 30 -19 0 -38 -2 -40
-5z"/>
<path d="M9199 5099 c-15 -3 -46 -18 -70 -32 -24 -14 -79 -39 -121 -57 -47
-19 -88 -43 -103 -62 -17 -20 -25 -42 -25 -68 0 -20 12 -63 26 -94 l26 -57
-26 -49 c-15 -28 -26 -66 -26 -88 0 -26 10 -54 32 -88 27 -40 32 -58 32 -100
-1 -28 -7 -60 -13 -72 -6 -12 -16 -58 -22 -103 -5 -45 -22 -109 -36 -143 -23
-56 -25 -68 -18 -156 5 -79 3 -108 -14 -170 -11 -41 -25 -122 -32 -180 -6 -58
-20 -126 -30 -152 -14 -36 -17 -62 -12 -110 4 -52 1 -78 -22 -148 -19 -61 -28
-115 -32 -191 -4 -68 -2 -118 6 -141 6 -20 44 -78 84 -129 70 -91 76 -96 173
-144 55 -28 123 -67 151 -88 28 -20 65 -40 81 -43 24 -5 43 1 79 22 26 15 75
35 108 44 48 12 61 20 67 40 4 14 10 51 13 82 4 34 15 70 28 90 14 19 39 39
63 48 23 8 49 22 59 30 10 8 26 34 37 56 10 23 23 87 29 143 11 91 10 104 -4
119 -11 10 -39 17 -81 20 -62 4 -65 3 -106 -34 -23 -21 -60 -64 -81 -96 -22
-32 -49 -62 -60 -68 -11 -6 -32 -10 -47 -8 -22 2 -28 9 -30 36 -2 18 4 69 13
115 12 56 33 112 66 175 36 68 49 104 49 134 0 26 -12 65 -31 105 -31 63 -31
65 -27 191 3 115 6 132 31 177 15 27 27 57 27 65 0 9 11 59 25 111 16 62 25
121 25 174 0 56 5 91 18 115 9 19 28 41 42 48 17 9 46 11 92 7 37 -3 95 -1
130 5 35 6 100 30 146 52 l83 41 87 -14 c48 -8 116 -14 152 -14 62 0 69 2 134
49 47 34 81 50 110 53 22 3 64 1 91 -5 28 -5 93 -22 145 -37 79 -23 117 -28
225 -30 72 -1 160 -6 197 -10 50 -6 83 -3 137 10 68 17 76 17 163 0 50 -10
111 -29 135 -41 24 -13 55 -24 67 -24 13 0 46 18 72 40 27 23 60 43 73 47 15
4 58 -5 108 -21 51 -17 87 -34 93 -46 5 -10 10 -61 10 -112 0 -51 -9 -148 -19
-216 -16 -100 -25 -131 -50 -170 -16 -26 -37 -74 -47 -107 -12 -44 -17 -114
-20 -257 -3 -192 -4 -199 -31 -250 -23 -46 -28 -70 -34 -173 -4 -66 -10 -140
-14 -165 -6 -40 -3 -51 24 -91 17 -25 60 -67 95 -93 44 -32 69 -59 79 -84 8
-20 18 -56 22 -79 4 -24 15 -53 25 -65 15 -19 28 -23 68 -22 30 0 61 8 79 20
17 10 54 38 83 61 38 32 74 50 138 69 l87 26 98 101 c54 56 120 135 147 175
28 41 50 84 50 96 0 12 -15 36 -32 52 -18 17 -62 49 -97 72 -35 23 -73 42 -86
42 -12 0 -33 -8 -46 -19 -13 -10 -38 -26 -56 -35 -18 -9 -50 -16 -73 -16 -27
0 -47 7 -60 20 -11 11 -20 31 -20 45 0 13 14 73 31 132 17 59 52 148 77 198
39 76 47 102 52 168 5 54 12 86 27 105 11 15 41 43 66 62 27 20 47 43 47 54 0
10 -20 41 -45 68 -25 27 -49 66 -54 86 -5 21 -9 162 -9 316 0 260 -1 280 -19
305 -11 14 -43 42 -72 61 -28 19 -65 52 -82 73 -17 20 -44 44 -61 53 -20 10
-82 19 -191 26 -89 5 -205 7 -257 4 -52 -3 -118 -9 -147 -12 -35 -4 -68 -1
-100 10 -40 13 -95 15 -328 12 -154 -2 -328 1 -386 7 -90 8 -117 7 -172 -6
-37 -10 -99 -17 -140 -17 -41 0 -89 5 -108 12 -19 6 -59 27 -89 45 -31 18 -69
33 -86 33 -17 0 -81 -16 -142 -35 -111 -35 -112 -36 -279 -33 -110 1 -190 -3
-231 -11 -36 -8 -90 -11 -127 -9 -36 3 -76 13 -90 22 -14 9 -41 39 -60 65 -20
27 -45 51 -58 53 -12 2 -34 1 -48 -3z"/>
<path d="M19310 4974 c-30 -14 -89 -36 -130 -50 -41 -13 -103 -42 -137 -63
-44 -28 -68 -52 -83 -81 -15 -30 -19 -51 -15 -73 4 -18 20 -54 35 -82 16 -27
47 -92 69 -144 22 -51 45 -119 51 -150 5 -31 14 -146 20 -256 5 -110 14 -222
19 -250 5 -27 17 -79 25 -115 9 -36 16 -83 16 -105 0 -22 -12 -76 -26 -120
-22 -69 -25 -91 -20 -160 4 -44 13 -111 21 -149 10 -48 27 -88 54 -129 25 -36
42 -75 45 -100 3 -23 7 -109 10 -191 5 -148 5 -151 41 -223 20 -40 46 -78 58
-85 12 -6 49 -15 82 -19 33 -4 83 -3 110 2 37 6 57 17 76 39 14 17 41 35 59
40 21 6 50 6 82 -1 27 -6 55 -8 63 -5 8 3 19 24 26 48 6 24 20 74 31 112 11
38 23 101 27 139 6 53 4 80 -8 113 -12 33 -21 44 -37 44 -12 0 -33 9 -47 20
-14 11 -37 44 -51 73 -26 52 -26 53 -10 112 11 43 15 89 12 160 -3 72 -11 119
-28 167 l-24 66 22 65 c16 44 21 73 16 93 -4 16 -16 49 -26 74 -11 25 -32 108
-48 185 -15 77 -35 199 -45 270 -9 72 -20 149 -26 172 -5 23 -21 73 -35 110
-14 37 -34 106 -45 153 -10 47 -19 101 -19 120 0 19 -5 53 -11 75 -7 24 -29
57 -54 82 -26 27 -51 43 -66 43 -13 0 -49 -12 -79 -26z"/>
<path d="M35710 4700 c-36 -10 -92 -21 -125 -25 -33 -3 -71 -11 -85 -16 -14
-5 -35 -26 -48 -45 -13 -20 -38 -41 -55 -49 -18 -7 -93 -18 -167 -25 -74 -6
-149 -15 -166 -21 -16 -5 -50 -30 -75 -55 -24 -25 -64 -59 -88 -76 -30 -22
-50 -46 -67 -84 -13 -29 -34 -60 -46 -67 -13 -8 -40 -20 -62 -27 -29 -9 -46
-24 -68 -60 -22 -35 -42 -53 -80 -71 -39 -18 -55 -32 -66 -59 -9 -23 -16 -88
-20 -197 -5 -159 -5 -163 21 -215 19 -38 56 -80 135 -153 73 -68 132 -112 182
-138 l73 -37 296 1 c163 0 330 -3 371 -6 55 -5 94 -2 145 9 46 11 102 16 163
14 l93 -3 62 67 c34 37 78 74 97 84 19 9 50 21 69 25 23 5 46 3 67 -6 25 -10
35 -23 43 -52 6 -21 11 -127 11 -237 l0 -198 46 -46 c26 -25 53 -60 60 -78 8
-18 14 -47 14 -64 0 -17 -6 -46 -14 -65 -8 -18 -25 -40 -38 -49 -12 -8 -52
-20 -88 -25 -36 -6 -97 -20 -136 -30 -39 -11 -110 -36 -158 -55 -48 -20 -106
-49 -130 -66 -33 -24 -62 -34 -129 -45 -47 -8 -99 -21 -116 -29 -17 -9 -38
-28 -48 -42 -10 -15 -30 -39 -45 -53 -15 -14 -42 -38 -61 -53 -23 -19 -41 -47
-56 -87 -12 -33 -32 -68 -45 -78 -13 -10 -38 -26 -55 -35 -18 -10 -38 -33 -46
-52 -12 -27 -15 -84 -15 -249 0 -207 1 -215 25 -263 14 -27 46 -74 71 -104 26
-30 58 -72 72 -93 14 -20 52 -57 86 -81 34 -24 86 -69 116 -100 42 -44 68 -60
116 -76 34 -12 68 -27 74 -35 7 -8 17 -49 23 -91 9 -70 13 -78 46 -102 19 -15
46 -39 60 -53 14 -14 34 -49 44 -78 11 -31 28 -58 45 -69 20 -13 47 -17 117
-17 85 0 95 -2 137 -30 26 -17 79 -55 120 -86 40 -31 82 -66 92 -77 13 -15 21
-44 25 -92 l7 -71 85 -85 c83 -82 87 -85 162 -104 42 -11 89 -26 104 -34 16
-8 55 -19 88 -25 32 -6 83 -11 112 -11 30 0 63 4 73 10 10 5 28 26 40 46 20
31 22 45 17 117 -2 45 -1 118 4 163 5 44 18 107 29 139 11 32 20 71 20 87 0
16 -9 45 -19 66 -11 20 -34 51 -53 68 -18 17 -50 41 -70 53 -24 14 -41 34 -49
58 -8 25 -9 69 -4 147 4 61 8 179 8 261 0 83 -1 182 -3 220 -2 39 -2 102 0
140 2 39 -3 93 -10 122 -11 44 -11 63 0 125 8 40 15 112 15 159 0 75 -4 94
-30 148 -22 48 -27 66 -19 79 6 9 29 23 50 30 21 8 54 20 72 28 24 10 38 27
56 66 13 29 32 60 42 70 10 9 48 24 84 33 36 9 95 35 133 57 37 22 104 51 149
64 55 15 88 30 100 46 15 18 18 36 16 83 -2 33 -13 78 -23 100 -15 31 -29 43
-60 54 -32 10 -60 11 -135 3 -74 -7 -109 -17 -155 -41 -58 -30 -64 -30 -212
-33 -135 -2 -155 -1 -170 15 -15 15 -19 44 -25 175 -3 86 -10 188 -14 225 -6
58 -3 81 17 144 l23 74 -17 117 c-9 64 -17 139 -17 165 0 44 4 53 49 100 29
31 55 71 65 100 9 26 16 61 16 77 0 15 -3 36 -6 45 -4 9 -28 27 -55 40 -27 14
-54 35 -61 47 -7 13 -15 67 -18 120 -4 70 -10 102 -21 114 -9 8 -34 20 -55 24
-21 5 -84 10 -139 10 -76 0 -109 -4 -135 -18 -21 -10 -44 -34 -58 -58 -12 -23
-29 -70 -37 -105 -8 -35 -17 -90 -20 -122 -5 -41 -14 -66 -32 -88 -14 -16 -49
-42 -77 -56 -28 -14 -68 -39 -89 -55 -21 -17 -59 -38 -85 -48 -39 -14 -86 -17
-282 -18 -129 -1 -320 -7 -425 -12 -104 -6 -214 -13 -243 -16 -32 -4 -65 -1
-83 6 -16 7 -36 22 -44 34 -8 11 -15 33 -15 49 0 17 10 37 24 50 14 13 49 31
79 40 30 10 67 27 81 38 15 12 47 61 71 110 33 64 53 93 74 104 17 8 46 15 66
15 19 0 62 -7 94 -16 35 -10 72 -14 93 -10 20 4 48 21 68 41 19 19 39 35 45
35 6 0 24 -13 39 -29 16 -16 40 -34 55 -40 14 -5 66 -20 114 -32 61 -15 104
-20 137 -16 27 3 66 15 88 26 35 18 46 34 101 145 39 81 58 131 54 143 -3 10
-18 36 -33 58 -14 22 -34 62 -44 88 -10 26 -28 54 -39 61 -15 10 -72 16 -177
19 -93 4 -177 12 -210 22 -30 8 -66 15 -80 14 -14 0 -54 -9 -90 -19z m749
-2444 c20 -22 22 -31 17 -88 -3 -34 -9 -112 -12 -172 -4 -68 -2 -137 6 -183
11 -69 10 -80 -11 -143 -14 -42 -19 -77 -15 -94 4 -18 25 -38 61 -62 30 -19
61 -45 69 -57 8 -12 18 -48 21 -80 5 -41 2 -85 -11 -148 -17 -87 -17 -93 1
-197 10 -59 20 -132 22 -162 2 -33 -2 -65 -9 -80 -9 -16 -24 -26 -41 -28 -15
-2 -42 6 -61 18 -19 11 -49 43 -67 71 -18 28 -48 61 -68 74 -20 12 -58 31 -84
40 -31 12 -58 32 -79 57 -16 21 -51 49 -77 62 -25 13 -53 32 -63 42 -9 11 -23
37 -32 59 -9 22 -39 60 -65 85 -43 39 -52 55 -72 125 -20 68 -31 87 -70 125
-26 25 -54 59 -63 77 -9 17 -41 53 -71 79 -45 40 -55 53 -55 80 0 28 9 40 66
86 36 29 82 63 102 75 20 12 47 33 62 46 14 14 32 43 40 66 7 22 22 49 32 58
17 15 37 17 139 15 74 -2 133 1 155 8 31 11 41 22 65 75 16 35 39 71 51 79 12
9 39 16 58 16 26 0 43 -7 59 -24z"/>
<path d="M27558 4690 c-10 -6 -23 -31 -29 -55 -6 -25 -22 -55 -34 -67 -13 -13
-46 -31 -74 -41 -41 -14 -55 -26 -77 -63 -21 -36 -39 -51 -90 -75 -47 -22 -72
-42 -96 -75 -19 -27 -57 -60 -93 -81 -33 -20 -85 -62 -115 -94 -33 -34 -67
-60 -85 -64 -16 -4 -47 -11 -69 -17 -22 -5 -58 -28 -85 -52 -25 -24 -67 -55
-92 -69 -25 -15 -70 -35 -100 -46 -30 -10 -79 -34 -109 -53 -30 -18 -67 -39
-83 -46 -15 -6 -64 -21 -109 -32 -45 -12 -112 -37 -149 -56 -37 -19 -120 -49
-185 -65 -106 -28 -140 -32 -310 -36 -124 -4 -221 -1 -275 6 -46 7 -103 21
-126 32 -36 18 -47 31 -79 97 -20 42 -36 92 -37 109 -1 22 10 48 31 78 18 25
32 51 32 58 0 7 -42 35 -93 62 l-92 50 -171 -1 c-125 -1 -186 -6 -227 -18 -38
-11 -64 -26 -82 -48 -26 -31 -27 -33 -21 -142 3 -61 8 -132 11 -158 6 -39 4
-48 -12 -56 -10 -5 -77 -15 -148 -22 -75 -7 -186 -11 -260 -7 -92 3 -155 1
-215 -10 -58 -10 -117 -13 -185 -9 -55 3 -123 13 -152 21 -29 9 -59 25 -68 38
-10 14 -15 45 -15 93 0 64 -6 87 -61 224 -60 148 -61 155 -55 217 5 43 1 94
-9 152 -9 49 -25 102 -35 119 -11 17 -31 39 -47 49 -22 15 -48 18 -134 18 -99
0 -109 -2 -132 -23 -14 -13 -34 -50 -46 -82 -12 -32 -27 -62 -34 -68 -7 -6
-35 -19 -62 -29 -43 -16 -52 -24 -63 -58 -11 -32 -11 -69 -2 -190 8 -106 8
-171 1 -220 -6 -38 -11 -99 -11 -135 0 -42 5 -73 15 -87 8 -12 37 -29 64 -38
27 -9 56 -24 65 -34 10 -11 25 -62 36 -123 10 -58 24 -115 32 -127 7 -12 27
-31 45 -42 18 -11 50 -42 73 -69 32 -38 57 -55 118 -81 66 -28 88 -33 157 -32
44 0 123 8 175 17 75 14 155 18 379 18 206 0 296 4 328 13 24 7 63 29 86 48
23 19 57 42 75 51 18 10 67 24 109 32 41 8 105 14 141 14 42 0 82 -7 106 -18
23 -10 55 -39 80 -72 23 -30 57 -63 76 -72 19 -9 76 -22 125 -28 50 -6 115
-20 146 -31 52 -19 59 -19 86 -5 16 8 36 22 43 31 7 9 26 23 41 31 16 8 37 14
47 14 11 0 49 -14 85 -31 l66 -30 72 32 73 31 135 -12 c104 -10 146 -10 178
-1 27 7 50 23 65 42 13 17 37 44 53 61 17 16 65 52 108 80 43 28 99 57 125 65
26 8 99 18 162 22 63 4 125 13 138 19 12 7 33 35 47 62 14 27 35 56 48 65 13
8 36 19 52 24 17 5 64 17 106 26 65 13 84 23 134 65 33 28 84 59 115 71 30 11
61 25 68 32 7 6 22 28 33 49 14 27 34 45 69 63 28 14 56 37 64 53 7 15 17 51
21 81 5 37 15 62 31 78 13 12 34 23 48 23 14 0 39 -12 56 -27 28 -26 32 -36
44 -139 8 -65 22 -126 33 -150 11 -21 32 -75 47 -119 14 -44 41 -105 59 -135
20 -33 56 -73 92 -100 32 -25 87 -73 122 -107 41 -41 77 -66 103 -74 36 -11
59 -9 193 19 l152 31 180 -11 c99 -7 207 -12 241 -12 42 0 70 5 88 18 16 10
39 42 52 71 20 46 28 55 61 64 21 6 84 11 141 11 69 0 112 5 130 14 15 8 38
33 51 56 15 27 36 47 57 56 30 13 38 12 65 -1 16 -9 39 -30 49 -48 11 -18 43
-79 71 -137 29 -58 68 -122 88 -143 20 -21 65 -54 101 -72 36 -18 83 -38 105
-45 22 -7 67 -26 100 -43 l59 -30 66 22 c36 11 112 25 170 31 58 6 151 15 207
20 56 6 124 17 151 25 30 9 70 33 105 64 30 27 76 57 102 66 37 14 60 16 123
10 42 -4 118 -10 167 -13 70 -6 106 -3 165 11 41 10 85 24 98 31 13 7 54 37
92 67 37 30 79 71 94 92 15 21 38 44 51 53 12 8 72 24 131 35 65 13 129 32
158 47 27 15 58 39 70 55 11 16 35 37 52 48 17 10 48 19 68 19 22 0 43 -7 55
-19 11 -11 27 -44 36 -73 8 -30 29 -66 47 -85 17 -18 43 -54 57 -80 25 -46 29
-49 86 -61 33 -7 92 -29 131 -49 55 -28 77 -34 100 -29 16 4 65 21 109 38 68
26 99 31 215 37 112 6 143 12 180 31 25 12 61 35 80 50 19 15 43 30 53 33 10
4 29 4 42 1 14 -4 35 -24 50 -49 18 -32 41 -52 83 -75 40 -21 64 -42 80 -70
12 -22 35 -46 50 -53 15 -8 65 -22 112 -32 47 -10 119 -19 160 -19 50 0 91 5
122 17 33 13 68 41 121 97 55 57 80 92 94 130 11 32 35 70 61 96 35 36 42 49
42 83 0 28 -7 48 -24 68 -24 28 -25 28 -178 33 -84 3 -161 10 -171 14 -10 5
-27 26 -38 48 -11 21 -41 63 -67 92 -26 30 -62 72 -80 95 -23 28 -48 46 -84
58 -28 10 -71 36 -95 57 -39 34 -53 40 -102 44 -53 4 -59 2 -101 -33 -24 -20
-64 -47 -89 -59 -25 -13 -70 -31 -99 -41 -30 -9 -68 -30 -85 -45 -18 -15 -50
-37 -72 -48 -22 -11 -67 -25 -100 -31 -32 -6 -83 -11 -112 -11 -30 0 -69 6
-88 14 -18 8 -39 24 -45 36 -9 16 -10 54 -5 130 6 86 4 118 -10 168 -10 34
-28 70 -42 84 -19 18 -38 23 -91 26 -44 3 -95 -3 -149 -16 -61 -15 -92 -18
-120 -11 -21 5 -62 9 -90 9 -40 0 -58 -5 -73 -20 -10 -10 -28 -37 -39 -58 -11
-21 -36 -49 -56 -63 -20 -13 -52 -48 -71 -77 -19 -29 -48 -61 -65 -70 -17 -9
-63 -36 -102 -60 -40 -23 -112 -55 -162 -71 -49 -16 -114 -34 -143 -41 -36 -8
-68 -25 -97 -50 -25 -21 -52 -41 -62 -43 -10 -3 -43 -11 -73 -17 -30 -7 -73
-22 -95 -33 -38 -19 -46 -19 -146 -7 -59 7 -130 9 -160 5 -30 -4 -99 -25 -154
-47 -93 -37 -110 -41 -240 -49 -77 -4 -150 -11 -162 -15 -13 -3 -38 -3 -58 0
-27 5 -49 23 -100 82 -60 69 -65 78 -65 122 0 27 7 57 15 70 9 12 48 40 88 63
40 23 80 49 90 57 13 11 17 30 17 76 0 49 -7 75 -34 131 -18 39 -43 79 -55 89
-14 13 -41 21 -80 24 -45 3 -71 -1 -122 -22 -47 -18 -84 -26 -130 -26 -46 0
-78 -7 -114 -24 -27 -12 -65 -40 -83 -62 -18 -21 -48 -59 -65 -84 -18 -24 -53
-59 -77 -77 -25 -18 -58 -43 -75 -56 -16 -13 -43 -31 -60 -39 -16 -8 -61 -23
-100 -32 -38 -9 -103 -21 -144 -26 -46 -6 -111 -26 -167 -50 -70 -30 -116 -42
-186 -50 -51 -6 -118 -17 -148 -25 -50 -13 -64 -13 -148 5 -80 16 -101 25
-155 65 -34 26 -70 61 -79 78 -9 18 -19 61 -23 97 -3 36 -8 82 -11 102 -4 28
-19 51 -55 87 -27 28 -49 59 -49 70 0 12 19 42 43 68 38 41 42 50 41 94 -1 32
-12 67 -34 107 -17 33 -41 70 -51 81 -11 11 -33 28 -50 37 -24 12 -56 15 -138
13 -58 -1 -137 1 -176 5 -45 4 -76 3 -87 -4z"/>
<path d="M14564 3340 c-12 -5 -31 -21 -43 -36 -11 -14 -21 -32 -21 -39 0 -7
-8 -23 -19 -36 -13 -17 -36 -25 -87 -34 -57 -9 -71 -15 -82 -36 -10 -17 -12
-52 -8 -129 4 -58 10 -121 16 -139 5 -19 17 -42 26 -53 10 -10 43 -26 73 -35
31 -8 68 -24 82 -34 15 -10 39 -23 55 -29 16 -6 43 -9 61 -5 22 4 37 15 47 33
7 15 19 56 25 92 7 36 19 75 27 88 10 16 24 22 49 22 25 0 46 -10 80 -40 25
-22 55 -40 66 -40 11 0 30 10 43 23 13 13 29 50 39 87 8 36 23 108 32 161 14
81 15 100 3 118 -7 11 -28 28 -46 37 -18 8 -63 17 -100 19 -37 3 -119 7 -182
9 -63 2 -125 0 -136 -4z"/>
<path d="M5480 3230 c-8 -5 -23 -37 -35 -72 -17 -53 -26 -66 -55 -82 -28 -15
-46 -17 -83 -12 -32 5 -69 22 -110 50 -34 23 -77 48 -96 54 -19 7 -59 12 -90
12 -31 0 -82 -4 -115 -10 -47 -8 -67 -17 -105 -51 -25 -23 -71 -55 -101 -73
-37 -21 -62 -44 -77 -71 -12 -22 -27 -67 -34 -100 -7 -34 -9 -73 -6 -87 4 -15
18 -40 32 -56 14 -16 60 -49 102 -72 43 -23 96 -52 118 -65 27 -16 75 -29 146
-39 59 -9 135 -16 170 -15 35 0 80 5 99 12 21 7 43 26 57 47 12 19 30 45 40
58 15 19 32 24 111 31 82 7 97 12 122 36 16 16 34 42 39 59 6 17 15 66 20 109
5 43 16 88 25 101 10 16 39 32 88 48 69 22 73 25 76 55 2 24 -2 35 -20 47 -13
8 -54 18 -91 22 -46 5 -92 18 -139 40 -38 19 -70 34 -71 34 -1 0 -9 -4 -17
-10z"/>
</g>
</svg>
